<?xml version="1.0"?>
<svg width="16" height="16" viewBox="0 0 16 16" xmlns="http://www.w3.org/2000/svg" xmlns:xlink="http://www.w3.org/1999/xlink">
 <defs>
  <symbol height="16" id="ij-anyfile" viewBox="0 0 16 16" width="16">
   <g fill="none" fill-opacity="0.8" fill-rule="evenodd">
    <polygon fill="#9AA7B0" points="7 1 3 5 7 5"/>
    <polygon fill="#9AA7B0" points="8 1 8 6 3 6 3 15 13 15 13 1"/>
   </g>
  </symbol>
  <symbol height="269.000000pt" id="excalidraw-logo" preserveAspectRatio="xMidYMid meet" version="1" viewBox="0 0 109.000000 269.000000" width="109.000000pt">
   <g fill="#000000" transform="translate(0.000000,269.000000) scale(0.100000,-0.100000)">
    <path fill="#ffffff" d="m393,2643c-74,-59 -188,-159 -278,-245l-71,-67l13,-88c7,-48 20,-142 28,-208c9,-66 18,-128 21,-137c4,-12 0,-18 -11,-18c-19,0 -20,5 32,-160c19,-63 37,-121 39,-127c2,-7 10,-10 19,-7c9,4 14,12 11,19c-3,8 2,16 10,19c11,4 10,12 -7,41c-27,45 -96,429 -100,553c-3,88 -3,89 34,139c36,49 119,123 247,217c36,27 72,57 82,67c15,18 22,13 148,-121c73,-77 154,-156 180,-176l48,-36l-37,-78c-20,-42 -101,-204 -181,-358c-167,-324 -133,-293 -327,-296l-126,-1l-42,-48c-44,-51 -50,-70 -29,-102c8,-11 14,-29 14,-40c0,-18 7,-21 47,-23c25,-1 48,-4 51,-7c3,-3 7,-65 10,-138l4,-132l-67,-144c-111,-240 -155,-350 -155,-386c0,-19 4,-35 8,-35c10,0 10,1 417,850c189,394 368,765 398,826c30,61 57,117 59,125c2,9 -67,78 -177,175c-99,88 -186,168 -194,177c-23,28 -57,19 -118,-30zm34,-1150c-46,-89 -48,-90 -174,-96c-111,-6 -113,-5 -113,16c0,12 -4,28 -9,36c-6,9 -2,25 12,47l22,34l100,0c55,1 118,5 140,9c22,4 41,6 43,5c2,-1 -8,-24 -21,-51zm-84,-160c-8,-21 -29,-65 -46,-98c-28,-56 -31,-58 -38,-35c-4,14 -7,55 -8,92c-1,73 -3,72 81,77l27,1l-16,-37z"/>
    <path fill="#ffffff" d="m423,2405c-18,-13 -23,-26 -23,-59c0,-39 3,-45 30,-56c27,-11 34,-10 65,11c41,28 42,35 12,80c-26,39 -52,46 -84,24zm57,-36c16,-28 6,-49 -24,-49c-27,0 -39,27 -24,54c12,22 35,20 48,-5z"/>
    <path fill="#ffffff" d="m1050,2180c0,-5 -6,-10 -13,-10c-6,0 -23,-28 -36,-62c-40,-104 -440,-895 -441,-870c0,13 -6,22 -16,22c-14,0 -16,-8 -10,-47c6,-45 2,-55 -140,-331c-80,-157 -166,-321 -191,-365c-26,-46 -46,-96 -48,-117c-3,-36 1,-41 88,-116c50,-44 114,-99 142,-124c126,-115 185,-161 201,-158c24,4 395,393 396,415c0,10 -18,162 -40,338c-38,300 -74,651 -70,685c3,21 -12,127 -23,173c-9,36 -5,51 67,215c42,97 97,216 121,264c23,48 43,90 43,93c0,3 -7,5 -15,5c-8,0 -15,-4 -15,-10zm-230,-747c11,-70 33,-238 49,-373c31,-248 67,-523 77,-593c6,-35 2,-42 -63,-114c-113,-127 -233,-252 -274,-284l-38,-30l-195,182c-180,166 -195,183 -184,203c6,11 57,104 113,206c56,102 130,238 164,302c35,65 67,121 73,124c7,4 9,-97 7,-312c-4,-321 -3,-322 29,-315c4,0 7,162 7,359l0,358l105,210c58,116 106,209 108,208c2,-1 12,-60 22,-131z"/>
   </g>
  </symbol>
 </defs>
 <g class="layer">
  <g id="icon">
   <use id="ref-to-ij-anyfile" transform="matrix(0.9, 0, 0, 0.9, 27.3, 9.1)" x="-29.222223" xlink:href="#ij-anyfile" y="-9.222222"/>
   <use id="ref-to-excalidraw-logo" transform="matrix(0.0257485, 0, 0, 0.0257485, 29.3641, 10.8904)" x="-807.578778" xlink:href="#excalidraw-logo" y="-247.958387"/>
   <text fill="#ffffff" font-family="Monospace" font-size="24" id="ex-prefix" stroke="#ffffff" stroke-width="0" text-anchor="middle" transform="matrix(0.132805, 0, 0, 0.132805, 25.5307, 5.47429)" x="-146.422892" xml:space="preserve" y="56.089173">Ex</text>
  </g>
 </g>
</svg>