<svg xmlns="http://www.w3.org/2000/svg" xmlns:xlink="http://www.w3.org/1999/xlink" width="81" height="80" viewBox="0 0 81 80">
  <defs>
    <linearGradient id="pluginsdk_80-a" x1="-.031%" x2="100.053%" y1="49.963%" y2="49.963%">
      <stop offset="25.81%" stop-color="#F97A12"/>
      <stop offset="45.91%" stop-color="#B07B58"/>
      <stop offset="72.41%" stop-color="#577BAE"/>
      <stop offset="91.05%" stop-color="#1E7CE5"/>
      <stop offset="100%" stop-color="#087CFA"/>
    </linearGradient>
    <linearGradient id="pluginsdk_80-b" x1="27.55%" x2="82.223%" y1="34.514%" y2="77.605%">
      <stop offset="0%" stop-color="#F97A12"/>
      <stop offset="7.18%" stop-color="#CB7A3E"/>
      <stop offset="15.41%" stop-color="#9E7B6A"/>
      <stop offset="24.2%" stop-color="#757B91"/>
      <stop offset="33.44%" stop-color="#537BB1"/>
      <stop offset="43.24%" stop-color="#387CCC"/>
      <stop offset="53.81%" stop-color="#237CE0"/>
      <stop offset="65.52%" stop-color="#147CEF"/>
      <stop offset="79.25%" stop-color="#0B7CF7"/>
      <stop offset="100%" stop-color="#087CFA"/>
    </linearGradient>
    <linearGradient id="pluginsdk_80-c" x1="63.121%" x2="40.793%" y1="97.699%" y2="-6.587%">
      <stop offset="0%" stop-color="#FE315D"/>
      <stop offset="7.84%" stop-color="#CB417E"/>
      <stop offset="16.01%" stop-color="#9E4E9B"/>
      <stop offset="24.74%" stop-color="#755BB4"/>
      <stop offset="33.92%" stop-color="#5365CA"/>
      <stop offset="43.65%" stop-color="#386DDB"/>
      <stop offset="54.14%" stop-color="#2374E9"/>
      <stop offset="65.76%" stop-color="#1478F3"/>
      <stop offset="79.4%" stop-color="#0B7BF8"/>
      <stop offset="100%" stop-color="#087CFA"/>
    </linearGradient>
    <linearGradient id="pluginsdk_80-d" x1="25.331%" x2="93.854%" y1="24.119%" y2="132.621%">
      <stop offset="0%" stop-color="#FE315D"/>
      <stop offset="4.023%" stop-color="#F63462"/>
      <stop offset="10.37%" stop-color="#DF3A71"/>
      <stop offset="16.67%" stop-color="#C24383"/>
      <stop offset="29.12%" stop-color="#AD4A91"/>
      <stop offset="54.98%" stop-color="#755BB4"/>
      <stop offset="91.75%" stop-color="#1D76ED"/>
      <stop offset="100%" stop-color="#087CFA"/>
    </linearGradient>

    <symbol height="269.000000pt" id="excalidraw-logo" preserveAspectRatio="xMidYMid meet" version="1" viewBox="0 0 109.000000 269.000000" width="109.000000pt">
      <g fill="#000000" transform="translate(0.000000,269.000000) scale(0.100000,-0.100000)">
        <path fill="#ffffff" d="m393,2643c-74,-59 -188,-159 -278,-245l-71,-67l13,-88c7,-48 20,-142 28,-208c9,-66 18,-128 21,-137c4,-12 0,-18 -11,-18c-19,0 -20,5 32,-160c19,-63 37,-121 39,-127c2,-7 10,-10 19,-7c9,4 14,12 11,19c-3,8 2,16 10,19c11,4 10,12 -7,41c-27,45 -96,429 -100,553c-3,88 -3,89 34,139c36,49 119,123 247,217c36,27 72,57 82,67c15,18 22,13 148,-121c73,-77 154,-156 180,-176l48,-36l-37,-78c-20,-42 -101,-204 -181,-358c-167,-324 -133,-293 -327,-296l-126,-1l-42,-48c-44,-51 -50,-70 -29,-102c8,-11 14,-29 14,-40c0,-18 7,-21 47,-23c25,-1 48,-4 51,-7c3,-3 7,-65 10,-138l4,-132l-67,-144c-111,-240 -155,-350 -155,-386c0,-19 4,-35 8,-35c10,0 10,1 417,850c189,394 368,765 398,826c30,61 57,117 59,125c2,9 -67,78 -177,175c-99,88 -186,168 -194,177c-23,28 -57,19 -118,-30zm34,-1150c-46,-89 -48,-90 -174,-96c-111,-6 -113,-5 -113,16c0,12 -4,28 -9,36c-6,9 -2,25 12,47l22,34l100,0c55,1 118,5 140,9c22,4 41,6 43,5c2,-1 -8,-24 -21,-51zm-84,-160c-8,-21 -29,-65 -46,-98c-28,-56 -31,-58 -38,-35c-4,14 -7,55 -8,92c-1,73 -3,72 81,77l27,1l-16,-37z"/>
        <path fill="#ffffff" d="m423,2405c-18,-13 -23,-26 -23,-59c0,-39 3,-45 30,-56c27,-11 34,-10 65,11c41,28 42,35 12,80c-26,39 -52,46 -84,24zm57,-36c16,-28 6,-49 -24,-49c-27,0 -39,27 -24,54c12,22 35,20 48,-5z"/>
        <path fill="#ffffff" d="m1050,2180c0,-5 -6,-10 -13,-10c-6,0 -23,-28 -36,-62c-40,-104 -440,-895 -441,-870c0,13 -6,22 -16,22c-14,0 -16,-8 -10,-47c6,-45 2,-55 -140,-331c-80,-157 -166,-321 -191,-365c-26,-46 -46,-96 -48,-117c-3,-36 1,-41 88,-116c50,-44 114,-99 142,-124c126,-115 185,-161 201,-158c24,4 395,393 396,415c0,10 -18,162 -40,338c-38,300 -74,651 -70,685c3,21 -12,127 -23,173c-9,36 -5,51 67,215c42,97 97,216 121,264c23,48 43,90 43,93c0,3 -7,5 -15,5c-8,0 -15,-4 -15,-10zm-230,-747c11,-70 33,-238 49,-373c31,-248 67,-523 77,-593c6,-35 2,-42 -63,-114c-113,-127 -233,-252 -274,-284l-38,-30l-195,182c-180,166 -195,183 -184,203c6,11 57,104 113,206c56,102 130,238 164,302c35,65 67,121 73,124c7,4 9,-97 7,-312c-4,-321 -3,-322 29,-315c4,0 7,162 7,359l0,358l105,210c58,116 106,209 108,208c2,-1 12,-60 22,-131z"/>
      </g>
    </symbol>
  </defs>
  <g fill="none" fill-rule="evenodd">
    <g fill-rule="nonzero" transform="translate(8 8)">
      <path fill="url(#pluginsdk_80-a)" d="M6.08754566,64 L2.66453526e-15,59.1000946 L0,26.7918961 L30,38.6703369 L10.1403967,64 L6.08754566,64 Z"/>
      <path fill="url(#pluginsdk_80-b)" d="M20.9524706,64 L52.2740919,31.9159091 L37.6708832,0.460194805 L38.0580944,1.33226763e-15 L64,0 L64,64 L20.9524706,64 Z"/>
      <path fill="url(#pluginsdk_80-c)" d="M34.4123783,0 L64,0 L64,28.0366227 L49.0078336,44 L34,0.44696173 L34.4123783,0 Z"/>
      <path fill="url(#pluginsdk_80-d)" d="M30.3358775,64 L0,64 L0,49.9709549 L6.23437817,29.2830519 L0,27.1596093 L0,0 L39.4697238,0 L58,21.3844805 L30.5381317,63.9259091 L30.3358775,64 Z"/>
    </g>
    <g fill-rule="nonzero" transform="translate(12 12)">
      <rect width="56" height="56" fill="#000"/>
      <use id="ref-to-excalidraw-logo" transform="matrix(0.1, 0, 0, 0.1, 29.3641, 10.8904)" x="60" xlink:href="#excalidraw-logo" />
      <text fill="#ffffff" font-family="Monospace" font-size="24" id="ex-prefix" stroke="#ffffff" stroke-width="0" text-anchor="middle" x="18" y="46">Ex</text>
    </g>
  </g>
</svg>