<?xml version="1.0" encoding="UTF-8" standalone="no"?>
<svg
        width="16"
        height="16"
        viewBox="0 0 16 16"
        version="1.1"
        id="svg23"
        sodipodi:docname="save-as-webp.svg"
        inkscape:version="1.3.2 (091e20e, 2023-11-25)"
        xmlns:inkscape="http://www.inkscape.org/namespaces/inkscape"
        xmlns:sodipodi="http://sodipodi.sourceforge.net/DTD/sodipodi-0.dtd"
        xmlns="http://www.w3.org/2000/svg"
>
  <defs
     id="defs27" />
  <sodipodi:namedview
     id="namedview25"
     pagecolor="#5b5b5b"
     bordercolor="#666666"
     borderopacity="1.0"
     inkscape:pageshadow="2"
     inkscape:pageopacity="0"
     inkscape:pagecheckerboard="0"
     showgrid="false"
     showguides="false"
     inkscape:zoom="41.8125"
     inkscape:cx="7.6651719"
     inkscape:cy="10.284006"
     inkscape:window-width="1784"
     inkscape:window-height="1039"
     inkscape:window-x="568"
     inkscape:window-y="506"
     inkscape:window-maximized="0"
     inkscape:current-layer="text1707"
     inkscape:showpageshadow="0"
     inkscape:deskcolor="#505050" />
  <g
     fill="none"
     fill-rule="evenodd"
     id="g21">
    <polygon
       fill="#6e6e6e"
       points="7,5 7,1 9,1 9,5 12,5 8,9 4,5 "
       id="down-arrow" />
    <rect
       id="text-rect"
       x="1"
       y="9"
       width="15"
       height="7"
       rx="1"
       ry="1"
       fill="#3db1f2"
       fill-opacity=".7" />
    <g
       aria-label="PNG"
       transform="scale(1.018743,0.98160185)"
       id="text1707"
       style="font-size:7.85282px;line-height:1.25;opacity:1;vector-effect:none;fill:#231f20;fill-opacity:0.7;stroke-width:0.944755;stop-color:#000000;stop-opacity:1">
      <path
         id="W"
         d="M 2.0378977,15.440854 1.4548006,9.8400532 H 2.252723 l 0.3529271,3.9128878 q 0.015345,0.199481 0.030689,0.514047 0.023017,0.306893 0.023017,0.521718 0.023017,-0.214825 0.046034,-0.521718 0.030689,-0.314566 0.053706,-0.514047 L 3.2501258,9.8400532 h 0.8209393 l 0.4603398,3.9128878 q 0.023017,0.199481 0.053706,0.514047 0.038362,0.306893 0.061379,0.521718 0.00767,-0.214825 0.023017,-0.521718 0.023017,-0.314566 0.038362,-0.514047 L 5.0531234,9.8400532 h 0.79025 L 5.229587,15.440854 H 4.1708054 L 3.741155,11.512621 Q 3.718138,11.290124 3.695121,10.975558 3.672104,10.65332 3.6567593,10.446167 q -0.015345,0.207153 -0.038362,0.529391 -0.023017,0.314566 -0.046034,0.537063 l -0.4680121,3.928233 z"
         style="font-size:7.67233px;line-height:1.25;opacity:1;vector-effect:none;stroke-width:4.13863;stop-color:#000000;stop-opacity:1;font-weight:bold;font-family:'JetBrainsMono Nerd Font Mono';-inkscape-font-specification:'JetBrainsMono Nerd Font Mono'"
         transform="scale(0.99399495,1.0060413)" />
      <path
         id="E"
         d="M 6.8778344,13.730244 V 8.7422632 H 9.8706227 V 9.4938767 H 7.718275 V 10.792118 H 9.631473 V 11.5164 H 7.718275 v 1.46223 h 2.1523477 v 0.751614 z"
         style="font-weight:bold;font-size:6.83285px;font-family:'JetBrainsMono Nerd Font Mono';-inkscape-font-specification:'JetBrainsMono Nerd Font Mono';stroke-width:3.6858"
         transform="scale(0.88310225,1.1323717)" />
      <path
         id="B"
         d="M 9.9104541,14.072304 V 8.9478569 h 1.5724329 q 0.737078,0 1.172305,0.3580093 0.442247,0.3580093 0.442247,0.9617108 0,0.421188 -0.245693,0.723039 -0.238673,0.301851 -0.624761,0.365029 v 0.01404 q 0.287811,0.0351 0.512445,0.210593 0.224633,0.168475 0.350989,0.442247 0.126356,0.266752 0.126356,0.589662 0,0.442247 -0.203574,0.772177 -0.203574,0.32993 -0.575622,0.512445 -0.372049,0.175495 -0.877474,0.175495 z m 0.8564149,-3.01149 h 0.701979 q 0.343969,0 0.547543,-0.182515 0.203574,-0.189534 0.203574,-0.512444 0,-0.315891 -0.203574,-0.4984055 -0.196554,-0.1895344 -0.547543,-0.1895344 h -0.701979 z m 0,2.281432 h 0.744097 q 0.386089,0 0.603702,-0.203574 0.224634,-0.210594 0.224634,-0.568603 0,-0.35801 -0.224634,-0.575623 -0.217613,-0.224633 -0.603702,-0.224633 h -0.744097 z"
         style="font-size:7.01979px;line-height:1.25;opacity:1;vector-effect:none;stroke-width:3.78664;stop-color:#000000;stop-opacity:1;font-weight:bold;font-family:'JetBrainsMono Nerd Font Mono';-inkscape-font-specification:'JetBrainsMono Nerd Font Mono'"
         transform="scale(0.90386974,1.1063541)" />
      <path
         id="P"
         d="M 13.591027,13.927753 V 8.8065846 h 1.704718 q 0.512117,0 0.890943,0.1964284 0.385841,0.1964284 0.5963,0.5542087 0.210459,0.350765 0.210459,0.8278053 0,0.47704 -0.210459,0.834821 -0.210459,0.350765 -0.5963,0.547193 -0.378826,0.196429 -0.890943,0.196429 H 14.46794 v 1.964283 z m 0.876913,-2.735966 h 0.827805 q 0.371811,0 0.589285,-0.22449 0.217474,-0.22449 0.217474,-0.58227 0,-0.35778 -0.217474,-0.5822698 Q 15.667556,9.5782676 15.295745,9.5782676 H 14.46794 Z"
         style="font-size:7.0153px;line-height:1.25;opacity:1;vector-effect:none;stroke-width:3.78422;stop-color:#000000;stop-opacity:1;font-weight:bold;font-family:'JetBrainsMono Nerd Font Mono';-inkscape-font-specification:'JetBrainsMono Nerd Font Mono'"
         transform="scale(0.89179406,1.1213351)" />
    </g>
  </g>
</svg>
