<?xml version="1.0" encoding="UTF-8" standalone="no"?>
<svg
        width="16"
        height="16"
        viewBox="0 0 16 16"
        version="1.1"
        id="svg23"
        sodipodi:docname="save-as-jpg.svg"
        inkscape:version="1.3.2 (091e20e, 2023-11-25)"
        xmlns:inkscape="http://www.inkscape.org/namespaces/inkscape"
        xmlns:sodipodi="http://sodipodi.sourceforge.net/DTD/sodipodi-0.dtd"
        xmlns="http://www.w3.org/2000/svg"
>
  <defs
     id="defs27" />
  <sodipodi:namedview
     id="namedview25"
     pagecolor="#5b5b5b"
     bordercolor="#666666"
     borderopacity="1.0"
     inkscape:pageshadow="2"
     inkscape:pageopacity="0"
     inkscape:pagecheckerboard="0"
     showgrid="false"
     showguides="false"
     inkscape:zoom="41.8125"
     inkscape:cx="7.7608371"
     inkscape:cy="8.2750374"
     inkscape:window-width="1784"
     inkscape:window-height="1039"
     inkscape:window-x="568"
     inkscape:window-y="562"
     inkscape:window-maximized="0"
     inkscape:current-layer="text1707"
     inkscape:showpageshadow="0"
     inkscape:deskcolor="#505050" />
  <g
     fill="none"
     fill-rule="evenodd"
     id="g21">

    <polygon
       fill="#6C707E"
       points="7,5 7,1 9,1 9,5 12,5 8,9 4,5 "
       id="down-arrow" />

    <rect id="text-rect" x="1" y="9" width="15" height="7" rx="1" ry="1" fill="#3db1f2" fill-opacity=".7" />
    <g
       aria-label="PNG"
       transform="scale(1.018743,0.98160185)"
       id="text1707"
       style="font-size:7.85282px;line-height:1.25;opacity:1;vector-effect:none;fill:#231f20;fill-opacity:0.7;stroke-width:0.944755;stop-color:#000000;stop-opacity:1">
      <path
         d="m 3.653809,15.340577 q -0.8305519,0 -1.3169112,-0.456429 Q 1.858021,14.427718 1.858021,13.649544 h 0.9353063 q 0,0.404052 0.2244735,0.64349 0.2319559,0.231956 0.6360082,0.231956 0.3965699,0 0.6285258,-0.231956 0.231956,-0.231956 0.231956,-0.636008 V 9.8035643 H 5.449597 v 3.8534617 q 0,0.778175 -0.4863592,1.234604 -0.4788768,0.448947 -1.3094288,0.448947 z"
         style="font-weight:bold;font-size:7.48245px;font-family:'JetBrainsMono Nerd Font';-inkscape-font-specification:'JetBrainsMono Nerd Font Bold';stroke-width:0.623536;stop-color:#000000;stop-opacity:1"
         transform="scale(0.98160184,1.018743)"
         id="J"/>
      <path
         d="m 8.3665125,9.9909863 q 0.4083466,0 0.738165,0.1256447 0.3376713,0.117793 0.5732559,0.337672 0.2355846,0.219879 0.3612296,0.533991 0.133498,0.314113 0.133498,0.691049 0,0.376935 -0.133498,0.691048 -0.125645,0.314113 -0.3612296,0.533992 -0.2355846,0.219878 -0.5732559,0.345524 -0.3298184,0.117792 -0.738165,0.117792 H 7.298529 v 2.277318 H 6.4347188 V 9.9909863 Z M 7.298529,10.737004 v 1.884677 h 1.0679835 q 0.4240523,0 0.6753425,-0.259143 0.2512902,-0.259143 0.2512902,-0.683195 0,-0.424053 -0.2512902,-0.683196 -0.2512902,-0.259143 -0.6753425,-0.259143 z"
         style="font-weight:bold;font-family:'JetBrainsMonoMedium Nerd Font';-inkscape-font-specification:'JetBrainsMonoMedium Nerd Font Bold';vector-effect:none;stop-color:#000000;stop-opacity:1"
         id="P" />
      <path
         d="m 12.860445,12.660945 h 1.923941 v 1.350685 q 0,0.392641 -0.133498,0.706754 -0.125645,0.314113 -0.361229,0.541844 -0.235585,0.219879 -0.573256,0.345525 -0.329819,0.117792 -0.746018,0.117792 -0.408347,0 -0.746018,-0.117792 -0.337671,-0.125646 -0.573256,-0.345525 -0.235585,-0.227731 -0.369083,-0.541844 -0.125645,-0.321966 -0.125645,-0.706754 v -2.387257 q 0,-0.384788 0.125645,-0.691048 0.133498,-0.314113 0.369083,-0.533992 0.243437,-0.227732 0.573256,-0.345524 0.337671,-0.1256452 0.746018,-0.1256452 0.761723,0 1.240745,0.3847882 0.479022,0.384788 0.596815,1.099395 h -0.871663 q -0.06282,-0.329819 -0.321966,-0.518286 -0.25129,-0.196321 -0.643931,-0.196321 -0.439758,0 -0.698901,0.25129 -0.25129,0.243438 -0.25129,0.675343 v 2.387257 q 0,0.447611 0.25129,0.698901 0.259143,0.25129 0.698901,0.25129 0.439758,0 0.691048,-0.25129 0.259143,-0.25129 0.259143,-0.698901 v -0.596814 h -1.060131 z"
         style="font-weight:bold;font-family:'JetBrainsMonoMedium Nerd Font';-inkscape-font-specification:'JetBrainsMonoMedium Nerd Font Bold';vector-effect:none;stop-color:#000000;stop-opacity:1"
         id="G" />
    </g>
  </g>
</svg>
