<?xml version="1.0" encoding="UTF-8" standalone="no"?>
<svg
        width="16"
        height="16"
        viewBox="0 0 16 16"
        version="1.1"
        id="svg23"
        sodipodi:docname="savs-as-svg.svg"
        inkscape:version="1.1 (c4e8f9e, 2021-05-24)"
        xmlns:inkscape="http://www.inkscape.org/namespaces/inkscape"
        xmlns:sodipodi="http://sodipodi.sourceforge.net/DTD/sodipodi-0.dtd"
        xmlns="http://www.w3.org/2000/svg"
>
  <defs
     id="defs27" />
  <sodipodi:namedview
     id="namedview25"
     pagecolor="#5b5b5b"
     bordercolor="#666666"
     borderopacity="1.0"
     inkscape:pageshadow="2"
     inkscape:pageopacity="0"
     inkscape:pagecheckerboard="0"
     showgrid="false"
     showguides="false"
     inkscape:zoom="41.8125"
     inkscape:cx="7.4379671"
     inkscape:cy="8.2869955"
     inkscape:window-width="1514"
     inkscape:window-height="914"
     inkscape:window-x="0"
     inkscape:window-y="23"
     inkscape:window-maximized="0"
     inkscape:current-layer="text1707" />
  <g
     fill="none"
     fill-rule="evenodd"
     id="g21">
    <polygon
       fill="#3db1f2"
       fill-opacity=".7"
       points="1 16 16 16 16 9 1 9"
       id="rect" />
    <polygon
       fill="#6e6e6e"
       points="7,5 7,1 9,1 9,5 12,5 8,9 4,5 "
       id="down-arrow" />
    <g
       aria-label="PNG"
       transform="scale(1.018743,0.98160185)"
       id="text1707"
       style="font-size:7.85282px;line-height:1.25;opacity:1;vector-effect:none;fill:#231f20;fill-opacity:0.7;stroke-width:0.944755;stop-color:#000000;stop-opacity:1">
      <path
         d="m 3.7651622,9.9909863 q 0.4083466,0 0.738165,0.1256447 0.3376713,0.117793 0.5732559,0.337672 0.2355846,0.219879 0.3612297,0.533991 0.133498,0.314113 0.133498,0.691049 0,0.376935 -0.133498,0.691048 -0.1256451,0.314113 -0.3612297,0.533992 -0.2355846,0.219878 -0.5732559,0.345524 -0.3298184,0.117792 -0.738165,0.117792 H 2.6971787 v 2.277318 H 1.8333685 V 9.9909863 Z M 2.6971787,10.737004 v 1.884677 h 1.0679835 q 0.4240523,0 0.6753425,-0.259143 0.2512902,-0.259143 0.2512902,-0.683195 0,-0.424053 -0.2512902,-0.683196 -0.2512902,-0.259143 -0.6753425,-0.259143 z"
         style="font-weight:bold;font-family:'JetBrainsMonoMedium Nerd Font';-inkscape-font-specification:'JetBrainsMonoMedium Nerd Font Bold';vector-effect:none;stop-color:#000000;stop-opacity:1"
         id="P" />
      <path
         d="m 7.5785651,9.9909863 1.4135076,3.7772067 q 0.05497,0.133498 0.094234,0.30626 0.047117,0.172762 0.086381,0.329818 0.039264,0.188468 0.078528,0.376935 h 0.078528 q 0,0 -0.015706,-0.102086 -0.00785,-0.102087 -0.031411,-0.266996 -0.015706,-0.164909 -0.031411,-0.369083 -0.015706,-0.204173 -0.015706,-0.408346 V 9.9909863 H 10.020792 V 15.645017 H 8.9528086 l -1.397802,-3.78506 Q 7.492184,11.702901 7.4450671,11.530139 7.3979502,11.349524 7.3586861,11.192468 7.319422,11.019706 7.2880107,10.846944 h -0.078528 q 0.023559,0.164909 0.039264,0.345524 0.015706,0.157056 0.023559,0.361229 0.015706,0.204174 0.015706,0.431906 v 3.659414 H 6.5027287 V 9.9909863 Z"
         style="font-weight:bold;font-family:'JetBrainsMonoMedium Nerd Font';-inkscape-font-specification:'JetBrainsMonoMedium Nerd Font Bold';vector-effect:none;stop-color:#000000;stop-opacity:1"
         id="N" />
      <path
         d="m 12.860445,12.660945 h 1.923941 v 1.350685 q 0,0.392641 -0.133498,0.706754 -0.125645,0.314113 -0.361229,0.541844 -0.235585,0.219879 -0.573256,0.345525 -0.329819,0.117792 -0.746018,0.117792 -0.408347,0 -0.746018,-0.117792 -0.337671,-0.125646 -0.573256,-0.345525 -0.235585,-0.227731 -0.369083,-0.541844 -0.125645,-0.321966 -0.125645,-0.706754 v -2.387257 q 0,-0.384788 0.125645,-0.691048 0.133498,-0.314113 0.369083,-0.533992 0.243437,-0.227732 0.573256,-0.345524 0.337671,-0.1256452 0.746018,-0.1256452 0.761723,0 1.240745,0.3847882 0.479022,0.384788 0.596815,1.099395 h -0.871663 q -0.06282,-0.329819 -0.321966,-0.518286 -0.25129,-0.196321 -0.643931,-0.196321 -0.439758,0 -0.698901,0.25129 -0.25129,0.243438 -0.25129,0.675343 v 2.387257 q 0,0.447611 0.25129,0.698901 0.259143,0.25129 0.698901,0.25129 0.439758,0 0.691048,-0.25129 0.259143,-0.25129 0.259143,-0.698901 v -0.596814 h -1.060131 z"
         style="font-weight:bold;font-family:'JetBrainsMonoMedium Nerd Font';-inkscape-font-specification:'JetBrainsMonoMedium Nerd Font Bold';vector-effect:none;stop-color:#000000;stop-opacity:1"
         id="G" />
    </g>
  </g>
</svg>